<svg xmlns="http://www.w3.org/2000/svg" viewBox="0 0 100 100" aria-hidden="true"><g fill="none" stroke-linecap="round"><circle cx="50" cy="50" r="40" stroke="rgba(255,255,255,0.22)" stroke-width="0.7" vector-effect="non-scaling-stroke" pathLength="100" stroke-dasharray="2.2 3.0" opacity="0.95"></circle><g transform="rotate(0,50,50)"><polygon points="90,49 90.26450336353162,49.63594235253127 90.95105651629515,49.69098300562505 90.42797543233281,50.139057647468725 90.58778525229248,50.80901699437495 90,50.45 89.41221474770752,50.80901699437495 89.57202456766719,50.139057647468725 89.04894348370485,49.69098300562505 89.73549663646838,49.63594235253127" fill="none" stroke="rgba(255,255,255,0.22)" stroke-width="0.8" stroke-linejoin="round" stroke-linecap="round" vector-effect="non-scaling-stroke" opacity="0.95"></polygon></g><g transform="rotate(120,50,50)"><polygon points="90,49.25 90.19837752264871,49.72695676439846 90.71329238722136,49.76823725421879 90.32098157424961,50.104293235601546 90.44083893921936,50.60676274578121 90,50.3375 89.55916106078064,50.60676274578121 89.67901842575039,50.104293235601546 89.28670761277863,49.76823725421879 89.80162247735129,49.72695676439846" fill="none" stroke="rgba(255,255,255,0.22)" stroke-width="0.8" stroke-linejoin="round" stroke-linecap="round" vector-effect="non-scaling-stroke" opacity="0.95"></polygon></g><g transform="rotate(240,50,50)"><polygon points="90,48.65 90.35707954076767,49.50852217591722 91.28392629699846,49.58282705759382 90.5777668336493,50.18772782408278 90.79351009059484,51.09217294240618 90,50.6075 89.20648990940516,51.09217294240618 89.4222331663507,50.18772782408278 88.71607370300154,49.58282705759382 89.64292045923233,49.50852217591722" fill="none" stroke="rgba(255,255,255,0.22)" stroke-width="0.8" stroke-linejoin="round" stroke-linecap="round" vector-effect="non-scaling-stroke" opacity="0.95"></polygon></g></g></svg>